# xmcd
#
# Track frame offsets:
#	150
#	13537
#	25021
#	37393
#	49259
#	60495
#	75230
#	85790
#	101710
#	116878
#	130390
#	147864
#	158741
#	170398
#	181737
#	196170
#	207049
#	218181
#	231511
#	243013
#
# Disc length: 3410 seconds
# Revision: 1
# Processed by: cddbd v1.5.2PL0 Copyright (c) Steve Scherf et al.
# Submitted via: dBpowerAMP V12.0
#
DISCID=090d5014
DTITLE=Marcel Martel - Marcel Martel
DYEAR=2002
DGENRE=Country
TTITLE0=Mon coeur est comme un train
TTITLE1=Sois fidèle et sincère
TTITLE2=Suzy
TTITLE3=Prisonnière de mon coeur
TTITLE4=La belle Gaspésie
TTITLE5=Bonsoir chérie
TTITLE6=Mon coeur brisé
TTITLE7=Hello Central
TTITLE8=J'entends le train
TTITLE9=L'infâme destin
TTITLE10=Le sourire des maman
TTITLE11=Ma bière, mon costume de bain
TTITLE12=Mon grand amour
TTITLE13=Moi j'bois d'la bière
TTITLE14=Petit indien
TTITLE15=Premier amour
TTITLE16=Tu me disais souvent je t'aime
TTITLE17=Toi seule mon belle amour
TTITLE18=Valser dans tes bras
TTITLE19=Un coeur, un amour, un bonheur
EXTD=
EXTT0=
EXTT1=
EXTT2=
EXTT3=
EXTT4=
EXTT5=
EXTT6=
EXTT7=
EXTT8=
EXTT9=
EXTT10=
EXTT11=
EXTT12=
EXTT13=
EXTT14=
EXTT15=
EXTT16=
EXTT17=
EXTT18=
EXTT19=
PLAYORDER=
